<mxfile host="65bd71144e">
    <diagram id="8yOQ9pwPY65PmZbYUfnM" name="Page-1">
        <mxGraphModel dx="1687" dy="967" grid="1" gridSize="10" guides="1" tooltips="1" connect="1" arrows="1" fold="1" page="1" pageScale="1" pageWidth="850" pageHeight="1100" math="0" shadow="0">
            <root>
                <mxCell id="0"/>
                <mxCell id="1" parent="0"/>
                <mxCell id="67" style="edgeStyle=none;html=1;exitX=0.5;exitY=0;exitDx=0;exitDy=0;entryX=0;entryY=0.5;entryDx=0;entryDy=0;strokeWidth=2;" parent="1" source="44" target="64" edge="1">
                    <mxGeometry relative="1" as="geometry">
                        <mxPoint x="900" y="470" as="targetPoint"/>
                    </mxGeometry>
                </mxCell>
                <mxCell id="77" style="edgeStyle=none;html=1;exitX=0.5;exitY=0;exitDx=0;exitDy=0;entryX=0.25;entryY=0;entryDx=0;entryDy=0;fillColor=#f8cecc;strokeColor=#b85450;" parent="1" source="44" target="73" edge="1">
                    <mxGeometry relative="1" as="geometry">
                        <Array as="points">
                            <mxPoint x="870" y="440"/>
                            <mxPoint x="940" y="440"/>
                            <mxPoint x="940" y="580"/>
                            <mxPoint x="910" y="580"/>
                        </Array>
                    </mxGeometry>
                </mxCell>
                <mxCell id="3" value="" style="group" parent="1" vertex="1" connectable="0">
                    <mxGeometry x="70" y="200" width="400" height="40" as="geometry"/>
                </mxCell>
                <mxCell id="4" value="Sign" style="whiteSpace=wrap;html=1;" parent="3" vertex="1">
                    <mxGeometry x="40" width="40" height="40" as="geometry"/>
                </mxCell>
                <mxCell id="5" value="Exponent" style="whiteSpace=wrap;html=1;" parent="3" vertex="1">
                    <mxGeometry x="80" width="120" height="40" as="geometry"/>
                </mxCell>
                <mxCell id="6" value="Mantissa" style="whiteSpace=wrap;html=1;" parent="3" vertex="1">
                    <mxGeometry x="200" width="200" height="40" as="geometry"/>
                </mxCell>
                <mxCell id="7" value="A" style="whiteSpace=wrap;html=1;fillColor=#fff2cc;strokeColor=#d6b656;" parent="3" vertex="1">
                    <mxGeometry width="40" height="40" as="geometry"/>
                </mxCell>
                <mxCell id="8" value="" style="group" parent="1" vertex="1" connectable="0">
                    <mxGeometry x="840" y="200" width="400" height="40" as="geometry"/>
                </mxCell>
                <mxCell id="9" value="Sign" style="whiteSpace=wrap;html=1;" parent="8" vertex="1">
                    <mxGeometry x="40" width="40" height="40" as="geometry"/>
                </mxCell>
                <mxCell id="10" value="Exponent" style="whiteSpace=wrap;html=1;" parent="8" vertex="1">
                    <mxGeometry x="80" width="120" height="40" as="geometry"/>
                </mxCell>
                <mxCell id="11" value="Mantissa" style="whiteSpace=wrap;html=1;" parent="8" vertex="1">
                    <mxGeometry x="200" width="200" height="40" as="geometry"/>
                </mxCell>
                <mxCell id="12" value="B" style="whiteSpace=wrap;html=1;fillColor=#fff2cc;strokeColor=#d6b656;" parent="8" vertex="1">
                    <mxGeometry width="40" height="40" as="geometry"/>
                </mxCell>
                <mxCell id="47" value="" style="group" parent="1" vertex="1" connectable="0">
                    <mxGeometry x="810" y="360" width="450" height="50" as="geometry"/>
                </mxCell>
                <mxCell id="108" value="" style="whiteSpace=wrap;html=1;fillColor=#f5f5f5;fontColor=#333333;strokeColor=#666666;" vertex="1" parent="47">
                    <mxGeometry x="-25" y="-30" width="475" height="80" as="geometry"/>
                </mxCell>
                <mxCell id="44" value="" style="shape=trapezoid;perimeter=trapezoidPerimeter;whiteSpace=wrap;html=1;fixedSize=1;rotation=-180;fillColor=#dae8fc;strokeColor=#6c8ebf;" parent="47" vertex="1">
                    <mxGeometry width="120" height="40" as="geometry"/>
                </mxCell>
                <mxCell id="45" value="0" style="text;html=1;align=center;verticalAlign=middle;resizable=0;points=[];autosize=1;strokeColor=none;fillColor=none;" parent="47" vertex="1">
                    <mxGeometry x="20" y="5" width="30" height="30" as="geometry"/>
                </mxCell>
                <mxCell id="46" value="1" style="text;html=1;align=center;verticalAlign=middle;resizable=0;points=[];autosize=1;strokeColor=none;fillColor=none;" parent="47" vertex="1">
                    <mxGeometry x="70" y="5" width="30" height="30" as="geometry"/>
                </mxCell>
                <mxCell id="53" style="edgeStyle=none;html=1;exitX=0.5;exitY=1;exitDx=0;exitDy=0;entryX=0.75;entryY=1;entryDx=0;entryDy=0;strokeWidth=2;" parent="1" source="6" target="44" edge="1">
                    <mxGeometry relative="1" as="geometry">
                        <mxPoint x="850" y="350" as="targetPoint"/>
                        <Array as="points">
                            <mxPoint x="370" y="280"/>
                            <mxPoint x="840" y="280"/>
                        </Array>
                    </mxGeometry>
                </mxCell>
                <mxCell id="55" value="" style="group" parent="1" vertex="1" connectable="0">
                    <mxGeometry x="1120" y="360" width="120" height="40" as="geometry"/>
                </mxCell>
                <mxCell id="56" value="" style="shape=trapezoid;perimeter=trapezoidPerimeter;whiteSpace=wrap;html=1;fixedSize=1;rotation=-180;fillColor=#dae8fc;strokeColor=#6c8ebf;" parent="55" vertex="1">
                    <mxGeometry width="120" height="40" as="geometry"/>
                </mxCell>
                <mxCell id="57" value="0" style="text;html=1;align=center;verticalAlign=middle;resizable=0;points=[];autosize=1;strokeColor=none;fillColor=none;" parent="55" vertex="1">
                    <mxGeometry x="20" y="5" width="30" height="30" as="geometry"/>
                </mxCell>
                <mxCell id="58" value="1" style="text;html=1;align=center;verticalAlign=middle;resizable=0;points=[];autosize=1;strokeColor=none;fillColor=none;" parent="55" vertex="1">
                    <mxGeometry x="70" y="5" width="30" height="30" as="geometry"/>
                </mxCell>
                <mxCell id="54" style="edgeStyle=none;html=1;exitX=0.5;exitY=1;exitDx=0;exitDy=0;entryX=0.25;entryY=1;entryDx=0;entryDy=0;strokeWidth=2;" parent="1" source="6" target="56" edge="1">
                    <mxGeometry relative="1" as="geometry">
                        <mxPoint x="1315.2380952380952" y="330" as="targetPoint"/>
                        <Array as="points">
                            <mxPoint x="370" y="280"/>
                            <mxPoint x="1210" y="280"/>
                        </Array>
                    </mxGeometry>
                </mxCell>
                <mxCell id="59" style="edgeStyle=none;html=1;exitX=0.5;exitY=1;exitDx=0;exitDy=0;entryX=0.75;entryY=1;entryDx=0;entryDy=0;strokeWidth=2;" parent="1" source="11" target="56" edge="1">
                    <mxGeometry relative="1" as="geometry">
                        <Array as="points">
                            <mxPoint x="1140" y="290"/>
                            <mxPoint x="1150" y="290"/>
                        </Array>
                    </mxGeometry>
                </mxCell>
                <mxCell id="38" style="edgeStyle=none;html=1;exitX=1;exitY=0.5;exitDx=0;exitDy=0;entryX=1;entryY=0.5;entryDx=0;entryDy=0;" parent="1" source="17" target="44" edge="1">
                    <mxGeometry relative="1" as="geometry">
                        <mxPoint x="400" y="380" as="targetPoint"/>
                    </mxGeometry>
                </mxCell>
                <mxCell id="39" value="o_diff_signal" style="edgeLabel;html=1;align=center;verticalAlign=middle;resizable=0;points=[];labelBackgroundColor=none;" parent="38" vertex="1" connectable="0">
                    <mxGeometry x="-0.48" y="-1" relative="1" as="geometry">
                        <mxPoint x="-85" y="-10" as="offset"/>
                    </mxGeometry>
                </mxCell>
                <mxCell id="74" style="edgeStyle=none;html=1;exitX=1;exitY=0.5;exitDx=0;exitDy=0;entryX=0.25;entryY=0;entryDx=0;entryDy=0;strokeWidth=2;" parent="1" source="64" target="73" edge="1">
                    <mxGeometry relative="1" as="geometry">
                        <Array as="points">
                            <mxPoint x="870" y="600"/>
                            <mxPoint x="910" y="600"/>
                        </Array>
                    </mxGeometry>
                </mxCell>
                <mxCell id="64" value="SHIFT_RIGHT" style="shape=step;perimeter=stepPerimeter;whiteSpace=wrap;html=1;fixedSize=1;size=20;fillColor=#e1d5e7;strokeColor=#9673a6;rotation=90;" parent="1" vertex="1">
                    <mxGeometry x="805" y="480" width="130" height="80" as="geometry"/>
                </mxCell>
                <mxCell id="34" value="" style="rounded=0;whiteSpace=wrap;html=1;fillColor=#f5f5f5;fontColor=#333333;strokeColor=#666666;" parent="1" vertex="1">
                    <mxGeometry x="170" y="340" width="140" height="240" as="geometry"/>
                </mxCell>
                <mxCell id="22" style="edgeStyle=none;html=1;exitX=0.75;exitY=1;exitDx=0;exitDy=0;entryX=0.629;entryY=0.569;entryDx=0;entryDy=0;entryPerimeter=0;" parent="1" source="17" target="20" edge="1">
                    <mxGeometry relative="1" as="geometry"/>
                </mxCell>
                <mxCell id="30" value="o_less_exp" style="edgeLabel;html=1;align=center;verticalAlign=middle;resizable=0;points=[];labelBackgroundColor=none;rotation=-90;" parent="22" vertex="1" connectable="0">
                    <mxGeometry x="-0.1328" relative="1" as="geometry">
                        <mxPoint x="-10" y="-9" as="offset"/>
                    </mxGeometry>
                </mxCell>
                <mxCell id="18" style="edgeStyle=none;html=1;exitX=0.25;exitY=1;exitDx=0;exitDy=0;entryX=0.494;entryY=0.117;entryDx=0;entryDy=0;entryPerimeter=0;" parent="1" source="17" target="19" edge="1">
                    <mxGeometry relative="1" as="geometry">
                        <mxPoint x="200" y="450" as="targetPoint"/>
                    </mxGeometry>
                </mxCell>
                <mxCell id="29" value="o_greater_exp" style="edgeLabel;html=1;align=center;verticalAlign=middle;resizable=0;points=[];rotation=-90;labelBackgroundColor=none;" parent="18" vertex="1" connectable="0">
                    <mxGeometry x="-0.6624" y="-1" relative="1" as="geometry">
                        <mxPoint x="-9" y="23" as="offset"/>
                    </mxGeometry>
                </mxCell>
                <mxCell id="40" style="edgeStyle=none;html=1;exitX=0.25;exitY=1;exitDx=0;exitDy=0;entryX=0.5;entryY=0;entryDx=0;entryDy=0;" parent="1" source="17" target="105" edge="1">
                    <mxGeometry relative="1" as="geometry">
                        <mxPoint x="180" y="660" as="targetPoint"/>
                        <Array as="points">
                            <mxPoint x="210" y="480"/>
                            <mxPoint x="180" y="480"/>
                        </Array>
                    </mxGeometry>
                </mxCell>
                <mxCell id="17" value="EXP_swap" style="rounded=0;whiteSpace=wrap;html=1;fillColor=#ffe6cc;strokeColor=#d79b00;" parent="1" vertex="1">
                    <mxGeometry x="180" y="360" width="120" height="40" as="geometry"/>
                </mxCell>
                <mxCell id="21" value="" style="group" parent="1" vertex="1" connectable="0">
                    <mxGeometry x="200" y="480" width="80" height="85" as="geometry"/>
                </mxCell>
                <mxCell id="19" value="" style="shape=waypoint;sketch=0;size=6;pointerEvents=1;points=[];fillColor=#fff2cc;resizable=0;rotatable=0;perimeter=centerPerimeter;snapToPoint=1;strokeColor=#d6b656;" parent="21" vertex="1">
                    <mxGeometry width="20" height="20" as="geometry"/>
                </mxCell>
                <mxCell id="20" value="" style="shape=waypoint;sketch=0;size=6;pointerEvents=1;points=[];fillColor=#fff2cc;resizable=0;rotatable=0;perimeter=centerPerimeter;snapToPoint=1;strokeColor=#d6b656;" parent="21" vertex="1">
                    <mxGeometry x="60" width="20" height="20" as="geometry"/>
                </mxCell>
                <mxCell id="27" value="" style="group" parent="21" vertex="1" connectable="0">
                    <mxGeometry y="5" width="80" height="80" as="geometry"/>
                </mxCell>
                <mxCell id="15" value="" style="shape=step;perimeter=stepPerimeter;whiteSpace=wrap;html=1;fixedSize=1;rotation=90;size=20;points=[[0,0.5,0,0,0],[0.15,0.06,0,0,0],[0.25,0,0,0,0],[0.25,1,0,0,0],[0.5,0,0,0,0],[0.5,1,0,0,0],[0.75,0,0,0,0],[0.75,1,0,0,0],[0.85,0.06,0,0,0],[1,0.25,0,0,0],[1,0.5,0,0,0],[1,0.75,0,0,0]];fillColor=#fff2cc;strokeColor=#d6b656;" parent="27" vertex="1">
                    <mxGeometry width="80" height="80" as="geometry"/>
                </mxCell>
                <mxCell id="24" value="EXP_SUB" style="text;html=1;align=center;verticalAlign=middle;resizable=0;points=[];autosize=1;strokeColor=none;fillColor=none;" parent="27" vertex="1">
                    <mxGeometry y="25" width="80" height="30" as="geometry"/>
                </mxCell>
                <mxCell id="36" style="edgeStyle=none;html=1;exitX=1;exitY=0.5;exitDx=0;exitDy=0;exitPerimeter=0;entryX=0.5;entryY=1;entryDx=0;entryDy=0;" parent="1" source="15" target="64" edge="1">
                    <mxGeometry relative="1" as="geometry">
                        <mxPoint x="700" y="530" as="targetPoint"/>
                        <Array as="points">
                            <mxPoint x="240" y="640"/>
                            <mxPoint x="520" y="640"/>
                            <mxPoint x="520" y="520"/>
                        </Array>
                    </mxGeometry>
                </mxCell>
                <mxCell id="37" value="o_diff_value" style="edgeLabel;html=1;align=center;verticalAlign=middle;resizable=0;points=[];rotation=-90;labelBackgroundColor=none;" parent="36" vertex="1" connectable="0">
                    <mxGeometry x="-0.2265" relative="1" as="geometry">
                        <mxPoint x="-238" y="-30" as="offset"/>
                    </mxGeometry>
                </mxCell>
                <mxCell id="43" style="edgeStyle=none;html=1;exitX=0.5;exitY=1;exitDx=0;exitDy=0;entryX=0.25;entryY=0;entryDx=0;entryDy=0;" parent="1" source="5" target="17" edge="1">
                    <mxGeometry relative="1" as="geometry"/>
                </mxCell>
                <mxCell id="68" style="edgeStyle=none;html=1;exitX=0.5;exitY=1;exitDx=0;exitDy=0;fillColor=#f8cecc;strokeColor=#b85450;strokeWidth=1;entryX=0.75;entryY=1;entryDx=0;entryDy=0;" parent="1" source="4" target="44" edge="1">
                    <mxGeometry relative="1" as="geometry">
                        <mxPoint x="810" y="350" as="targetPoint"/>
                        <Array as="points">
                            <mxPoint x="130" y="280"/>
                            <mxPoint x="840" y="280"/>
                        </Array>
                    </mxGeometry>
                </mxCell>
                <mxCell id="69" style="edgeStyle=none;html=1;exitX=0.5;exitY=1;exitDx=0;exitDy=0;entryX=0.25;entryY=1;entryDx=0;entryDy=0;fillColor=#f8cecc;strokeColor=#b85450;jumpStyle=arc;" parent="1" source="4" target="56" edge="1">
                    <mxGeometry relative="1" as="geometry">
                        <mxPoint x="1261.1764705882354" y="329.9999999999998" as="targetPoint"/>
                        <Array as="points">
                            <mxPoint x="130" y="280"/>
                            <mxPoint x="1210" y="280"/>
                        </Array>
                    </mxGeometry>
                </mxCell>
                <mxCell id="76" style="edgeStyle=none;html=1;exitX=0.25;exitY=1;exitDx=0;exitDy=0;strokeWidth=2;entryX=0;entryY=0.75;entryDx=0;entryDy=0;entryPerimeter=0;" parent="1" source="73" target="80" edge="1">
                    <mxGeometry relative="1" as="geometry">
                        <mxPoint x="910.0000000000002" y="780" as="targetPoint"/>
                        <Array as="points">
                            <mxPoint x="910" y="800"/>
                            <mxPoint x="960" y="800"/>
                        </Array>
                    </mxGeometry>
                </mxCell>
                <mxCell id="79" style="edgeStyle=none;html=1;exitX=0.75;exitY=1;exitDx=0;exitDy=0;strokeWidth=2;entryX=0;entryY=0.25;entryDx=0;entryDy=0;entryPerimeter=0;" parent="1" source="73" target="80" edge="1">
                    <mxGeometry relative="1" as="geometry">
                        <mxPoint x="1130" y="780" as="targetPoint"/>
                        <Array as="points">
                            <mxPoint x="1130" y="800"/>
                            <mxPoint x="1080" y="800"/>
                        </Array>
                    </mxGeometry>
                </mxCell>
                <mxCell id="87" style="edgeStyle=none;html=1;exitX=0.25;exitY=1;exitDx=0;exitDy=0;fillColor=#f8cecc;strokeColor=#b85450;entryX=1;entryY=0.5;entryDx=0;entryDy=0;" parent="1" source="73" target="89" edge="1">
                    <mxGeometry relative="1" as="geometry">
                        <mxPoint x="800" y="800" as="targetPoint"/>
                        <Array as="points">
                            <mxPoint x="910" y="800"/>
                            <mxPoint x="880" y="800"/>
                        </Array>
                    </mxGeometry>
                </mxCell>
                <mxCell id="73" value="&lt;font style=&quot;font-size: 20px;&quot;&gt;MAN_swap&lt;/font&gt;" style="rounded=0;whiteSpace=wrap;html=1;fillColor=#ffe6cc;strokeColor=#d79b00;" parent="1" vertex="1">
                    <mxGeometry x="800" y="640" width="440" height="80" as="geometry"/>
                </mxCell>
                <mxCell id="75" style="edgeStyle=none;html=1;exitX=0.5;exitY=0;exitDx=0;exitDy=0;entryX=0.75;entryY=0;entryDx=0;entryDy=0;strokeWidth=2;" parent="1" source="56" target="73" edge="1">
                    <mxGeometry relative="1" as="geometry">
                        <Array as="points">
                            <mxPoint x="1180" y="440"/>
                            <mxPoint x="1130" y="440"/>
                        </Array>
                    </mxGeometry>
                </mxCell>
                <mxCell id="78" style="edgeStyle=none;html=1;exitX=0.5;exitY=0;exitDx=0;exitDy=0;entryX=0.75;entryY=0;entryDx=0;entryDy=0;fillColor=#e1d5e7;strokeColor=#9673a6;" parent="1" source="56" target="73" edge="1">
                    <mxGeometry relative="1" as="geometry">
                        <Array as="points">
                            <mxPoint x="1180" y="440"/>
                            <mxPoint x="1130" y="440"/>
                        </Array>
                    </mxGeometry>
                </mxCell>
                <mxCell id="83" style="edgeStyle=none;html=1;exitX=0.25;exitY=1;exitDx=0;exitDy=0;entryX=0.5;entryY=1;entryDx=0;entryDy=0;entryPerimeter=0;fillColor=#f8cecc;strokeColor=#b85450;" parent="1" source="73" target="80" edge="1">
                    <mxGeometry relative="1" as="geometry">
                        <Array as="points">
                            <mxPoint x="910" y="800"/>
                            <mxPoint x="880" y="800"/>
                            <mxPoint x="880" y="940"/>
                        </Array>
                    </mxGeometry>
                </mxCell>
                <mxCell id="84" style="edgeStyle=none;html=1;exitX=0.75;exitY=1;exitDx=0;exitDy=0;entryX=0.5;entryY=0;entryDx=0;entryDy=0;entryPerimeter=0;fillColor=#e1d5e7;strokeColor=#9673a6;" parent="1" source="73" target="80" edge="1">
                    <mxGeometry relative="1" as="geometry">
                        <Array as="points">
                            <mxPoint x="1130" y="800"/>
                            <mxPoint x="1160" y="800"/>
                            <mxPoint x="1160" y="940"/>
                        </Array>
                    </mxGeometry>
                </mxCell>
                <mxCell id="85" value="o_man_max" style="text;html=1;align=center;verticalAlign=middle;resizable=0;points=[];autosize=1;strokeColor=none;fillColor=none;rotation=-90;" parent="1" vertex="1">
                    <mxGeometry x="855" y="744" width="90" height="30" as="geometry"/>
                </mxCell>
                <mxCell id="86" value="o_man_min" style="text;html=1;align=center;verticalAlign=middle;resizable=0;points=[];autosize=1;strokeColor=none;fillColor=none;rotation=-90;" parent="1" vertex="1">
                    <mxGeometry x="1075" y="744" width="90" height="30" as="geometry"/>
                </mxCell>
                <mxCell id="91" value="" style="group" parent="1" vertex="1" connectable="0">
                    <mxGeometry x="720" y="780" width="80" height="40" as="geometry"/>
                </mxCell>
                <mxCell id="89" value="Sign" style="whiteSpace=wrap;html=1;" parent="91" vertex="1">
                    <mxGeometry x="40" width="40" height="40" as="geometry"/>
                </mxCell>
                <mxCell id="90" value="S" style="whiteSpace=wrap;html=1;fillColor=#fff2cc;strokeColor=#d6b656;" parent="91" vertex="1">
                    <mxGeometry width="40" height="40" as="geometry"/>
                </mxCell>
                <mxCell id="95" value="o_man_overflow" style="text;html=1;align=center;verticalAlign=middle;resizable=0;points=[];autosize=1;strokeColor=none;fillColor=none;" parent="1" vertex="1">
                    <mxGeometry x="875" y="1008" width="110" height="30" as="geometry"/>
                </mxCell>
                <mxCell id="97" style="edgeStyle=none;html=1;exitX=0.5;exitY=1;exitDx=0;exitDy=0;strokeWidth=2;entryX=0.5;entryY=0;entryDx=0;entryDy=0;" parent="1" source="96" target="98" edge="1">
                    <mxGeometry relative="1" as="geometry">
                        <mxPoint x="1020.1428571428571" y="1280" as="targetPoint"/>
                    </mxGeometry>
                </mxCell>
                <mxCell id="106" style="edgeStyle=none;html=1;exitX=0;exitY=0.5;exitDx=0;exitDy=0;entryX=0;entryY=0.5;entryDx=0;entryDy=0;" parent="1" source="96" target="98" edge="1">
                    <mxGeometry relative="1" as="geometry">
                        <Array as="points">
                            <mxPoint x="880" y="1160"/>
                            <mxPoint x="880" y="1320"/>
                            <mxPoint x="920" y="1320"/>
                        </Array>
                    </mxGeometry>
                </mxCell>
                <mxCell id="107" style="edgeStyle=none;html=1;exitX=0;exitY=0.5;exitDx=0;exitDy=0;entryX=1;entryY=0.75;entryDx=0;entryDy=0;" parent="1" source="96" target="105" edge="1">
                    <mxGeometry relative="1" as="geometry">
                        <Array as="points">
                            <mxPoint x="850" y="1160"/>
                            <mxPoint x="850" y="1080"/>
                        </Array>
                    </mxGeometry>
                </mxCell>
                <mxCell id="96" value="&lt;font style=&quot;font-size: 16px;&quot;&gt;LOPD_24bit&lt;/font&gt;" style="whiteSpace=wrap;html=1;fillColor=#ffe6cc;strokeColor=#d79b00;" parent="1" vertex="1">
                    <mxGeometry x="960" y="1120" width="120" height="80" as="geometry"/>
                </mxCell>
                <mxCell id="88" style="edgeStyle=none;html=1;exitX=1;exitY=0.5;exitDx=0;exitDy=0;exitPerimeter=0;strokeWidth=2;entryX=0.5;entryY=0;entryDx=0;entryDy=0;" parent="1" source="80" target="96" edge="1">
                    <mxGeometry relative="1" as="geometry">
                        <mxPoint x="1020.1428571428571" y="1110" as="targetPoint"/>
                    </mxGeometry>
                </mxCell>
                <mxCell id="103" style="edgeStyle=none;html=1;exitX=0.5;exitY=1;exitDx=0;exitDy=0;entryX=0.5;entryY=0;entryDx=0;entryDy=0;strokeWidth=2;" parent="1" source="98" target="104" edge="1">
                    <mxGeometry relative="1" as="geometry">
                        <mxPoint x="1020.1428571428571" y="1440" as="targetPoint"/>
                    </mxGeometry>
                </mxCell>
                <mxCell id="98" value="&lt;font style=&quot;font-size: 16px;&quot;&gt;Normalization&lt;/font&gt;" style="whiteSpace=wrap;html=1;fillColor=#ffe6cc;strokeColor=#d79b00;" parent="1" vertex="1">
                    <mxGeometry x="960" y="1280" width="120" height="80" as="geometry"/>
                </mxCell>
                <mxCell id="101" value="o_one_position" style="text;html=1;align=center;verticalAlign=middle;resizable=0;points=[];autosize=1;strokeColor=none;fillColor=none;rotation=0;" parent="1" vertex="1">
                    <mxGeometry x="855" y="1135" width="100" height="30" as="geometry"/>
                </mxCell>
                <mxCell id="102" style="edgeStyle=none;html=1;exitX=1;exitY=0.5;exitDx=0;exitDy=0;exitPerimeter=0;entryX=1;entryY=0.5;entryDx=0;entryDy=0;" parent="1" source="80" target="98" edge="1">
                    <mxGeometry relative="1" as="geometry">
                        <Array as="points">
                            <mxPoint x="1020" y="1040"/>
                            <mxPoint x="1120" y="1040"/>
                            <mxPoint x="1120" y="1320"/>
                        </Array>
                    </mxGeometry>
                </mxCell>
                <mxCell id="104" value="&lt;font style=&quot;font-size: 16px;&quot;&gt;Rounding&lt;/font&gt;" style="whiteSpace=wrap;html=1;fillColor=#ffe6cc;strokeColor=#d79b00;" parent="1" vertex="1">
                    <mxGeometry x="960" y="1440" width="120" height="80" as="geometry"/>
                </mxCell>
                <mxCell id="105" value="&lt;font style=&quot;font-size: 16px;&quot;&gt;EXP_adjust&lt;/font&gt;" style="whiteSpace=wrap;html=1;fillColor=#ffe6cc;strokeColor=#d79b00;" parent="1" vertex="1">
                    <mxGeometry x="120" y="1020" width="120" height="80" as="geometry"/>
                </mxCell>
                <mxCell id="93" value="" style="group" parent="1" vertex="1" connectable="0">
                    <mxGeometry x="900" y="880" width="240" height="120" as="geometry"/>
                </mxCell>
                <mxCell id="80" value="" style="shape=step;perimeter=stepPerimeter;whiteSpace=wrap;html=1;fixedSize=1;rotation=90;points=[[0,0.25,0,0,0],[0,0.5,0,0,0],[0,0.75,0,0,0],[0.25,0,0,0,0],[0.25,1,0,0,0],[0.5,0,0,0,0],[0.5,1,0,0,0],[0.75,0,0,0,0],[0.75,1,0,0,0],[1,0.25,0,0,0],[1,0.5,0,0,0],[1,0.75,0,0,0]];fillColor=#fff2cc;strokeColor=#d6b656;size=20;" parent="93" vertex="1">
                    <mxGeometry x="60" y="-59.99999999999999" width="120" height="240" as="geometry"/>
                </mxCell>
                <mxCell id="92" value="&lt;font style=&quot;font-size: 20px;&quot;&gt;MAN_ADD&lt;/font&gt;" style="text;html=1;align=center;verticalAlign=middle;resizable=0;points=[];autosize=1;strokeColor=none;fillColor=none;" parent="93" vertex="1">
                    <mxGeometry x="60" y="40.00000000000001" width="120" height="40" as="geometry"/>
                </mxCell>
                <mxCell id="94" style="edgeStyle=none;html=1;exitX=1;exitY=0.5;exitDx=0;exitDy=0;exitPerimeter=0;entryX=1;entryY=0.25;entryDx=0;entryDy=0;" parent="1" source="80" target="105" edge="1">
                    <mxGeometry relative="1" as="geometry">
                        <mxPoint x="760" y="1040" as="targetPoint"/>
                        <Array as="points">
                            <mxPoint x="1020" y="1040"/>
                        </Array>
                    </mxGeometry>
                </mxCell>
                <mxCell id="42" style="edgeStyle=none;html=1;exitX=0.5;exitY=1;exitDx=0;exitDy=0;entryX=0.75;entryY=0;entryDx=0;entryDy=0;jumpStyle=arc;" parent="1" source="10" target="17" edge="1">
                    <mxGeometry relative="1" as="geometry">
                        <Array as="points">
                            <mxPoint x="980" y="300"/>
                            <mxPoint x="270" y="300"/>
                        </Array>
                    </mxGeometry>
                </mxCell>
                <mxCell id="62" style="edgeStyle=none;html=1;exitX=1;exitY=0.5;exitDx=0;exitDy=0;entryX=1;entryY=0.5;entryDx=0;entryDy=0;jumpStyle=arc;" parent="1" source="17" target="56" edge="1">
                    <mxGeometry relative="1" as="geometry">
                        <Array as="points">
                            <mxPoint x="720" y="380"/>
                            <mxPoint x="720" y="420"/>
                            <mxPoint x="1000" y="420"/>
                            <mxPoint x="1000" y="380"/>
                        </Array>
                    </mxGeometry>
                </mxCell>
                <mxCell id="60" style="edgeStyle=none;html=1;exitX=0.5;exitY=1;exitDx=0;exitDy=0;entryX=0.25;entryY=1;entryDx=0;entryDy=0;strokeWidth=2;" parent="1" source="11" target="44" edge="1">
                    <mxGeometry relative="1" as="geometry">
                        <Array as="points">
                            <mxPoint x="1140" y="290"/>
                            <mxPoint x="1000" y="290"/>
                            <mxPoint x="900" y="290"/>
                        </Array>
                    </mxGeometry>
                </mxCell>
                <mxCell id="72" style="edgeStyle=none;html=1;exitX=0.5;exitY=1;exitDx=0;exitDy=0;entryX=0.75;entryY=1;entryDx=0;entryDy=0;fillColor=#e1d5e7;strokeColor=#9673a6;" parent="1" source="9" target="56" edge="1">
                    <mxGeometry relative="1" as="geometry">
                        <Array as="points">
                            <mxPoint x="900" y="280"/>
                            <mxPoint x="1150" y="280"/>
                        </Array>
                    </mxGeometry>
                </mxCell>
                <mxCell id="70" style="edgeStyle=none;html=1;exitX=0.5;exitY=1;exitDx=0;exitDy=0;fillColor=#e1d5e7;strokeColor=#9673a6;entryX=0.25;entryY=1;entryDx=0;entryDy=0;" parent="1" source="9" edge="1" target="44">
                    <mxGeometry relative="1" as="geometry">
                        <mxPoint x="920" y="320" as="targetPoint"/>
                    </mxGeometry>
                </mxCell>
            </root>
        </mxGraphModel>
    </diagram>
</mxfile>